<svg width="353" height="32" viewBox="0 0 353 32" fill="none" xmlns="http://www.w3.org/2000/svg">
<path d="M17.728 31H0.97V1.348H4.33V30.664H11.428C13.248 30.664 14.718 30.216 15.838 29.32C16.986 28.424 17.952 26.912 18.736 24.784L17.728 31ZM31.3009 20.248C31.3009 21.984 31.6229 23.594 32.2669 25.078C32.9389 26.562 33.8349 27.78 34.9549 28.732C36.1029 29.656 37.4329 30.272 38.9449 30.58C40.4569 30.86 42.0529 30.678 43.7329 30.034C45.7489 29.306 47.3169 28.102 48.4369 26.422C49.5849 24.742 50.1589 22.684 50.1589 20.248C50.1589 18.68 50.1309 16.986 50.0749 15.166C50.0469 13.318 49.9349 11.526 49.7389 9.79C49.5429 8.026 49.2489 6.402 48.8569 4.918C48.4929 3.406 47.9609 2.202 47.2609 1.306H50.5369V20.248C50.5369 22.6 49.9629 24.672 48.8149 26.464C47.6949 28.256 46.0289 29.558 43.8169 30.37C41.9409 31.042 40.0509 31.28 38.1469 31.084C36.2709 30.888 34.5769 30.342 33.0649 29.446C31.5529 28.522 30.3209 27.276 29.3689 25.708C28.4449 24.14 27.9829 22.32 27.9829 20.248V1.306H31.3009V20.248ZM85.2466 1.348V31H82.0546V2.356C80.6546 2.944 79.4506 3.882 78.4426 5.17C77.4626 6.458 76.6366 7.956 75.9646 9.664C75.2926 11.344 74.7606 13.164 74.3686 15.124C73.9766 17.084 73.6686 19.03 73.4446 20.962C73.2486 22.894 73.1226 24.728 73.0666 26.464C73.0106 28.2 72.9826 29.712 72.9826 31H72.5626L61.2226 4.876L60.0466 2.104V31H59.7946V1.348H63.2806L72.8566 23.482C72.9966 21.886 73.1926 20.234 73.4446 18.526C73.6966 16.79 74.0326 15.11 74.4526 13.486C74.8726 11.834 75.3906 10.28 76.0066 8.824C76.6226 7.34 77.3646 6.052 78.2326 4.96C79.1286 3.84 80.1506 2.958 81.2986 2.314C82.4466 1.67 83.7626 1.348 85.2466 1.348ZM94.4774 1.348H97.6274V31H94.4774V1.348ZM109.998 1.348C111.146 1.348 112.224 1.558 113.232 1.978C114.268 2.37 115.22 2.944 116.088 3.7C116.984 4.428 117.796 5.31 118.524 6.346C119.28 7.354 119.966 8.46 120.582 9.664C121.842 11.96 122.822 14.494 123.522 17.266C124.25 20.01 124.768 22.74 125.076 25.456V1.348H128.226V31H125.076C125.076 29.32 124.978 27.57 124.782 25.75C124.586 23.902 124.292 22.054 123.9 20.206C123.508 18.358 123.018 16.552 122.43 14.788C121.87 12.996 121.198 11.344 120.414 9.832C119.77 8.628 119.084 7.536 118.356 6.556C117.628 5.548 116.83 4.68 115.962 3.952C115.094 3.224 114.156 2.664 113.148 2.272C112.168 1.852 111.118 1.642 109.998 1.642V31H106.848V1.348H109.998ZM137.47 1.348H140.62V31H137.47V1.348ZM160.928 1.768C162.888 1.208 164.834 1.082 166.766 1.39C168.726 1.67 170.518 2.3 172.142 3.28C173.794 4.232 175.222 5.492 176.426 7.06C177.658 8.628 178.526 10.406 179.03 12.394C179.59 14.354 179.73 16.314 179.45 18.274C179.17 20.206 178.554 22.012 177.602 23.692C176.65 25.344 175.39 26.786 173.822 28.018C172.282 29.222 170.518 30.09 168.53 30.622C166.542 31.182 164.582 31.322 162.65 31.042C160.718 30.762 158.926 30.146 157.274 29.194C155.65 28.242 154.222 26.982 152.99 25.414C151.758 23.846 150.876 22.054 150.344 20.038C149.812 18.05 149.686 16.076 149.966 14.116C150.274 12.156 150.904 10.35 151.856 8.698C152.836 7.046 154.096 5.618 155.636 4.414C157.176 3.182 158.94 2.3 160.928 1.768ZM160.97 2.104C159.178 2.58 157.708 3.434 156.56 4.666C155.44 5.87 154.6 7.284 154.04 8.908C153.48 10.532 153.186 12.254 153.158 14.074C153.13 15.866 153.326 17.56 153.746 19.156C154.166 20.752 154.838 22.32 155.762 23.86C156.686 25.4 157.792 26.73 159.08 27.85C160.368 28.942 161.81 29.754 163.406 30.286C165.002 30.79 166.682 30.804 168.446 30.328C170.238 29.88 171.708 29.04 172.856 27.808C174.004 26.548 174.858 25.106 175.418 23.482C176.006 21.858 176.314 20.15 176.342 18.358C176.398 16.538 176.216 14.83 175.796 13.234C175.376 11.61 174.704 10.028 173.78 8.488C172.856 6.948 171.736 5.618 170.42 4.498C169.132 3.378 167.676 2.58 166.052 2.104C164.456 1.6 162.762 1.6 160.97 2.104ZM192.189 20.248C192.189 21.984 192.511 23.594 193.155 25.078C193.827 26.562 194.723 27.78 195.843 28.732C196.991 29.656 198.321 30.272 199.833 30.58C201.345 30.86 202.941 30.678 204.621 30.034C206.637 29.306 208.205 28.102 209.325 26.422C210.473 24.742 211.047 22.684 211.047 20.248C211.047 18.68 211.019 16.986 210.963 15.166C210.935 13.318 210.823 11.526 210.627 9.79C210.431 8.026 210.137 6.402 209.745 4.918C209.381 3.406 208.849 2.202 208.149 1.306H211.425V20.248C211.425 22.6 210.851 24.672 209.703 26.464C208.583 28.256 206.917 29.558 204.705 30.37C202.829 31.042 200.939 31.28 199.035 31.084C197.159 30.888 195.465 30.342 193.953 29.446C192.441 28.522 191.209 27.276 190.257 25.708C189.333 24.14 188.871 22.32 188.871 20.248V1.306H192.189V20.248ZM222.824 8.488C222.824 6.92 223.202 5.618 223.958 4.582C224.742 3.546 225.736 2.748 226.94 2.188C228.144 1.6 229.474 1.25 230.93 1.138C232.414 0.997999 233.856 1.068 235.256 1.348C236.656 1.628 237.944 2.09 239.12 2.734C240.296 3.378 241.178 4.19 241.766 5.17V9.58C240.702 7.424 239.456 5.744 238.028 4.54C236.628 3.336 235.2 2.51 233.744 2.062C232.288 1.614 230.874 1.502 229.502 1.726C228.13 1.922 226.968 2.356 226.016 3.028C225.204 3.56 224.644 4.246 224.336 5.086C224.028 5.898 224.112 6.808 224.588 7.816C225.064 8.824 225.988 9.902 227.36 11.05C228.76 12.198 230.748 13.374 233.324 14.578C234.472 15.082 235.578 15.614 236.642 16.174C237.734 16.734 238.686 17.392 239.498 18.148C240.338 18.876 241.01 19.716 241.514 20.668C242.018 21.592 242.27 22.67 242.27 23.902C242.27 25.05 242.046 26.058 241.598 26.926C241.178 27.794 240.59 28.536 239.834 29.152C238.63 30.076 237.174 30.664 235.466 30.916C233.786 31.168 232.036 31.112 230.216 30.748C228.424 30.384 226.674 29.726 224.966 28.774C223.286 27.794 221.858 26.548 220.682 25.036V19.198C221.718 21.802 223.02 23.986 224.588 25.75C226.184 27.486 227.864 28.774 229.628 29.614C231.392 30.426 233.142 30.776 234.878 30.664C236.642 30.552 238.182 29.936 239.498 28.816C240.198 28.228 240.646 27.542 240.842 26.758C241.038 25.946 240.87 25.064 240.338 24.112C239.806 23.132 238.84 22.096 237.44 21.004C236.068 19.912 234.164 18.806 231.728 17.686C230.608 17.182 229.516 16.65 228.452 16.09C227.388 15.502 226.436 14.844 225.596 14.116C224.756 13.388 224.084 12.576 223.58 11.68C223.076 10.756 222.824 9.692 222.824 8.488ZM286.298 31H269.54V1.348H272.9V30.664H279.998C281.818 30.664 283.288 30.216 284.408 29.32C285.556 28.424 286.522 26.912 287.306 24.784L286.298 31ZM296.553 1.348H299.703V31H296.553V1.348ZM312.158 31H308.924V1.348H325.892V4.708C325.164 4.008 324.45 3.448 323.75 3.028C323.078 2.608 322.35 2.3 321.566 2.104C320.782 1.908 319.9 1.782 318.92 1.726C317.968 1.67 316.848 1.642 315.56 1.642H312.158V8.446C312.158 9.874 312.34 11.05 312.704 11.974C313.068 12.87 313.614 13.57 314.342 14.074C315.098 14.578 316.022 14.928 317.114 15.124C318.206 15.292 319.48 15.376 320.936 15.376V18.694C320.292 17.994 319.536 17.448 318.668 17.056C317.8 16.664 316.932 16.244 316.064 15.796C315.196 15.32 314.398 14.746 313.67 14.074C312.97 13.402 312.466 12.45 312.158 11.218V31ZM338.35 30.664H345.448C347.296 30.664 348.794 30.216 349.942 29.32C351.09 28.424 352.042 26.912 352.798 24.784L351.832 31H335.116V1.348H352.084V4.708C351.328 4.008 350.6 3.448 349.9 3.028C349.228 2.608 348.5 2.3 347.716 2.104C346.96 1.908 346.106 1.782 345.154 1.726C344.202 1.67 343.082 1.642 341.794 1.642H338.35V8.446C338.35 9.874 338.532 11.05 338.896 11.974C339.26 12.87 339.806 13.57 340.534 14.074C341.262 14.578 342.172 14.928 343.264 15.124C344.356 15.292 345.616 15.376 347.044 15.376V18.694C346.428 17.994 345.686 17.448 344.818 17.056C343.95 16.664 343.082 16.244 342.214 15.796C341.374 15.32 340.59 14.746 339.862 14.074C339.162 13.402 338.658 12.45 338.35 11.218V30.664Z" fill="#897763"/>
</svg>
