<svg width="40" height="40" viewBox="0 0 40 40" fill="none" xmlns="http://www.w3.org/2000/svg">
<path d="M15.625 9.0625H6.25C5.66984 9.0625 5.11344 9.29297 4.7032 9.7032C4.29297 10.1134 4.0625 10.6698 4.0625 11.25V21.25C4.0625 21.8302 4.29297 22.3866 4.7032 22.7968C5.11344 23.207 5.66984 23.4375 6.25 23.4375H15.9375V25C15.9334 26.4077 15.3723 27.7566 14.377 28.7519C13.3816 29.7473 12.0327 30.3084 10.625 30.3125C10.3764 30.3125 10.1379 30.4113 9.96209 30.5871C9.78627 30.7629 9.6875 31.0014 9.6875 31.25C9.6875 31.4986 9.78627 31.7371 9.96209 31.9129C10.1379 32.0887 10.3764 32.1875 10.625 32.1875C12.5312 32.1875 14.3594 31.4302 15.7073 30.0823C17.0552 28.7344 17.8125 26.9062 17.8125 25V11.25C17.8125 10.6698 17.582 10.1134 17.1718 9.7032C16.7616 9.29297 16.2052 9.0625 15.625 9.0625ZM15.9375 21.5625H6.25C6.16712 21.5625 6.08763 21.5296 6.02903 21.471C5.97042 21.4124 5.9375 21.3329 5.9375 21.25V11.25C5.9375 11.1671 5.97042 11.0876 6.02903 11.029C6.08763 10.9704 6.16712 10.9375 6.25 10.9375H15.625C15.7079 10.9375 15.7874 10.9704 15.846 11.029C15.9046 11.0876 15.9375 11.1671 15.9375 11.25V21.5625ZM33.75 9.0625H24.375C23.7948 9.0625 23.2384 9.29297 22.8282 9.7032C22.418 10.1134 22.1875 10.6698 22.1875 11.25V21.25C22.1875 21.8302 22.418 22.3866 22.8282 22.7968C23.2384 23.207 23.7948 23.4375 24.375 23.4375H34.0625V25C34.0584 26.4077 33.4973 27.7566 32.5019 28.7519C31.5066 29.7473 30.1577 30.3084 28.75 30.3125C28.5014 30.3125 28.2629 30.4113 28.0871 30.5871C27.9113 30.7629 27.8125 31.0014 27.8125 31.25C27.8125 31.4986 27.9113 31.7371 28.0871 31.9129C28.2629 32.0887 28.5014 32.1875 28.75 32.1875C30.6562 32.1875 32.4844 31.4302 33.8323 30.0823C35.1802 28.7344 35.9375 26.9062 35.9375 25V11.25C35.9375 10.6698 35.707 10.1134 35.2968 9.7032C34.8866 9.29297 34.3302 9.0625 33.75 9.0625ZM34.0625 21.5625H24.375C24.2921 21.5625 24.2126 21.5296 24.154 21.471C24.0954 21.4124 24.0625 21.3329 24.0625 21.25V11.25C24.0625 11.1671 24.0954 11.0876 24.154 11.029C24.2126 10.9704 24.2921 10.9375 24.375 10.9375H33.75C33.8329 10.9375 33.9124 10.9704 33.971 11.029C34.0296 11.0876 34.0625 11.1671 34.0625 11.25V21.5625Z" fill="#A9A693"/>
</svg>
